#!OML:ASF F:\VICON\USERDATA\INSTALL\rory3\rory3.ASF
:FULLY-SPECIFIED
:DEGREES
37
root -0.12662383495323304 17.59096326182952 20.839620606536712 -1.3961999184902762 -1.2985161315289238 -6.086215951884872
lfemur -28.034755938763873 2.6806541564421624 -13.576662919838817
ltibia 37.72978901395503
lfoot -2.7251340471779053 -3.2277304664282878
ltoes -8.491213164433765
rfemur -2.178216484910841 6.108284612196393 33.52414255502554
rtibia 34.362839549800675
rfoot -2.4395491737170047 -5.348380702745586
rtoes 9.341687628254569
lowerback 9.052432839369594 1.6057889595746762 6.619642298427027
upperback 0.16118596804810703 2.9661447843343343 1.8405332009431121
thorax -5.17896282315639 1.3289489807540074 -2.370544537557633
lowerneck -16.513740188639243 -3.1039691837287573 -1.4808648776509252
upperneck 20.182158484008152 -4.231156568660831 1.2753861163067612
head 9.099355976245256 -1.9766083795980327 0.21802506382721065
lclavicle -4.549974802043612e-16 -7.777118130512129e-16
lhumerus -35.04722019564409 9.450343175416002 78.14439820271237
lradius 20.774099618600054
lwrist 2.746769112965855
lhand -27.797862691137375 21.497830579049168
lfingers 7.12502
lthumb -1.2372529072139404 51.30762132579592
rclavicle -4.578615416968707e-16 -7.803790456071938e-16
rhumerus -22.083496153534824 -8.445999419233841 -82.42751754382708
rradius 29.321455486766972
rwrist -1.1078746777314201
rhand -18.14452275036009 22.340970089134583
rfingers 7.12502
rthumb 8.054820677894158 -7.820834568203346
38
root 0.02893112408674503 17.565316076888283 21.55107503522299 -0.5159384734142272 -1.3996858263425924 -5.78178470208925
lfemur -27.751535476385484 1.1096457653576506 -13.277093817650618
ltibia 28.750555171807243
lfoot -2.4662503479768016 -3.069472858735567
ltoes -9.747835830638424
rfemur -0.06999588670482915 5.654649433866853 32.81227300469149
rtibia 32.82765997602313
rfoot -0.7017745743623838 -7.750537181753572
rtoes 8.589609017331416
lowerback 7.352283691747209 1.677775330797566 6.385529330888585
upperback 0.10295515518662673 3.147875455469734 1.6806615128626763
thorax -4.9442645652045165 1.4581534677690473 -2.5880629771204795
lowerneck -16.6554764421799 -3.0913283336726676 -1.4205027566027333
upperneck 20.0169982245019 -4.2083064395769965 1.3693855005345994
head 9.081480152053784 -1.9699007167227347 0.23869795629797508
lclavicle -4.557070354084732e-16 -7.782373171222654e-16
lhumerus -35.70429965195432 9.939678154200479 77.89821132278304
lradius 20.423097395144936
lwrist 1.6863769382076277
lhand -27.833534463140914 21.011893866965103
lfingers 7.12502
lthumb -1.2456086572139755 50.771667803410004
rclavicle -4.569463586078899e-16 -7.795741614593311e-16
rhumerus -20.841466426247216 -7.141043348248983 -82.64170111005052
rradius 30.498344372659208
rwrist -2.0570132306245945
rhand -18.358984562279485 22.99785036956056
rfingers 7.12502
rthumb 7.844138615629329 -7.037858090381372
39
root 0.16021177503875103 17.37421128741779 21.148848539760074 -0.7751268534986318 -2.1181168709057916 -5.975419075870965
lfemur -27.02570187737441 -0.9080029367035581 -12.240257556697584
ltibia 21.30996452553368
lfoot -2.1939317080022684 -2.928053285994815
ltoes -10.964393164657093
rfemur 1.6253865880146794 5.66201995487068 32.46909955083281
rtibia 32.08954024064092
rfoot -0.18699262510938652 -9.895876815559808
rtoes 8.422793794980258
lowerback 7.703214872593197 1.7582904244063786 6.634133685890949
upperback -0.1044608856551301 3.316933672555881 1.594470753760451
thorax -5.069366173500867 1.5401062879398069 -2.7696343236878054
lowerneck -16.694861363737708 -3.0850262126968135 -1.3925533956881129
upperneck 19.856879307920295 -4.210408886075138 1.4579350012940289
head 9.054278501076713 -1.9723077244761111 0.25892947928523863
lclavicle -4.559805550080205e-16 -7.78446651068206e-16
lhumerus -36.3124134632873 10.412419531434828 77.67014461531694
lradius 20.12607137937392
lwrist 0.9311488962739665
lhand -27.193897624646006 22.531790876005516
lfingers 7.12502
lthumb -1.1069723144169181 51.18281157863631
rclavicle -4.564695530699577e-16 -7.792443392681399e-16
rhumerus -19.89679914663609 -6.57051931533487 -82.65127642743816
rradius 31.334855377780357
rwrist -2.4581835886503836
rhand -18.612104797059818 23.54077889118217
rfingers 7.12502
rthumb 7.676667083910583 -6.270879968272839
40
root 0.2865279748820152 17.262961525863258 20.927464255716593 -1.837553504469799 -2.92780194530855 -5.258957610911862
lfemur -25.676162770915866 -2.379134170004909 -12.611669323300006
ltibia 16.612243223214083
lfoot -1.8503570949718933 -2.369386110372329
ltoes -11.63183065557081
rfemur 2.6826033431088465 6.11170396301495 31.241579554635834
rtibia 33.22393105412392
rfoot 0.02085798239306058 -11.061620845570424
rtoes 8.260155212348769
lowerback 8.959238719459577 1.8618980517774557 6.068507064567792
upperback -0.09217744006456403 3.325078301802799 1.4377169709159134
thorax -5.011952628178911 1.556749262683808 -2.8017424183218003
lowerneck -16.75441644018589 -3.0806800624062536 -1.3617771393121203
upperneck 19.830800362861286 -4.205103926116917 1.5690436761808741
head 9.073567338714488 -1.9734993592375492 0.2806439726892471
lclavicle -4.558196313430939e-16 -7.783200142835867e-16
lhumerus -36.80468359835026 10.957451348835928 77.44156174478142
lradius 19.899890515851148
lwrist 1.0089382242164584
lhand -27.726807863264387 21.463602864511422
lfingers 7.12502
lthumb -1.3448191363661262 50.75308346434866
rclavicle -4.545300568012956e-16 -7.778757055398065e-16
rhumerus -19.28483229998077 -6.69715036922697 -82.52219434243634
rradius 31.795249669509314
rwrist -2.5088706219517904
rhand -18.782802679722558 23.892425494809657
rfingers 7.12502
rthumb 7.537155277212548 -5.864451953845198
41
root 0.40575149117503645 17.285654439688493 20.204905979302485 -2.737502378966485 -3.6429906066122015 -4.731434766086968
lfemur -24.482231447228706 -2.8656859477248395 -13.675408599732966
ltibia 16.050026925792494
lfoot -0.977900557873757 -2.92228225227555
ltoes -9.737461268134924
rfemur 3.2789766507827665 6.874349560987882 30.296712310405827
rtibia 35.88075632340093
rfoot -0.14962035760360415 -11.640937279306149
rtoes 8.784486956989824
lowerback 9.795920416979007 1.9141010856282172 5.272535613047545
upperback 0.15232763673176675 3.161924979441075 1.2152102189253948
thorax -4.663158633606685 1.5006995243399324 -2.59111566980651
lowerneck -16.758802004398486 -3.0997130018048433 -1.3540446273477986
upperneck 19.872679090105642 -4.248120415358703 1.6316472238604596
head 9.101268533315068 -1.9977448068933763 0.2839451117617086
lclavicle -4.553261487993969e-16 -7.779482893719017e-16
lhumerus -37.214431409302854 11.372919425435384 77.24455406344417
lradius 19.719262388568943
lwrist 1.4086780580677916
lhand -27.29250123360852 21.12427755164574
lfingers 7.12502
lthumb -1.0300708259961135 50.195552469355675
rclavicle -4.539458570512177e-16 -7.775027130477249e-16
rhumerus -19.111682734622168 -7.454893042467543 -82.2677944122451
rradius 31.88243642980421
rwrist -2.3371475993633206
rhand -18.827087696843762 24.02010097196474
rfingers 7.12502
rthumb 7.450128884499724 -5.799167401547593
42
root 0.5576639727222604 17.46047566868102 20.9498160430757 -2.937599398451285 -4.610659190015054 -3.572308701880835
lfemur -23.7328284594416 -4.060969485923616 -15.734217749431966
ltibia 18.80814030660364
lfoot -0.1069700151064561 -4.333206191499105
ltoes -6.608280680511754
rfemur 2.947362465269782 7.386901371835884 28.809143635516065
rtibia 39.683576394193004
rfoot -0.34607566069454876 -11.740255783249559
rtoes 9.93968167313134
lowerback 9.626232511084654 1.9596635677868202 4.246801310768565
upperback 0.4189876662982921 2.9981718414465277 0.9394300842378257
thorax -4.260611787745752 1.4401794320264578 -2.2169812711201873
lowerneck -16.654921505852442 -3.142729043861198 -1.3991339586846632
upperneck 20.017923867666454 -4.327544816043358 1.7502467100032415
head 9.138130815458345 -2.035351068392872 0.31580188096789685
lclavicle -4.554684964826151e-16 -7.780533787607747e-16
lhumerus -37.47055948031999 11.536379153740747 77.14257787395955
lradius 19.61587776746683
lwrist 1.5598914420552275
lhand -27.240982366165444 20.419253956064455
lfingers 7.12502
lthumb -0.8395888340287151 49.80677085058855
rclavicle -4.528218681832809e-16 -7.765830143491054e-16
rhumerus -19.442161951854686 -8.745216409707137 -81.86652683003723
rradius 31.621677630545744
rwrist -1.916808645830777
rhand -18.827154621453342 24.030109764968874
rfingers 7.12502
rthumb 7.452191752894857 -5.745007180234852
43
root 0.6590195702856194 17.664970153648508 21.751075646103644 -3.467992150404613 -5.140156938325617 -1.02072398735962
lfemur -21.4418375818817 -5.807333897467771 -19.273477579627837
ltibia 20.847229596022324
lfoot 0.10041248896126831 -5.220609022791694
ltoes -5.675993200627454
rfemur 0.043925276159697546 6.880829591145441 25.41418824132807
rtibia 45.925429902021534
rfoot -0.2593401717910133 -11.421702201175528
rtoes 11.310727651305594
lowerback 9.164609043151643 2.0158861039480076 2.517309968294226
upperback 0.5094754951958383 2.820531105703889 0.6217471258769145
thorax -4.012131595846272 1.3572790068303209 -1.859285885909461
lowerneck -16.486832998043795 -3.2102810449161274 -1.4753988460427225
upperneck 20.224408874569473 -4.452415733023949 1.8828094802305066
head 9.173072950447215 -2.0892733000293178 0.3568836335692361
lclavicle -4.564543134575832e-16 -7.788198508365536e-16
lhumerus -37.56342744234747 11.480120019975544 77.11451871738356
lradius 19.659860346607417
lwrist 1.8520122822713674
lhand -27.221219451268663 19.87281552071083
lfingers 7.12502
lthumb -0.8207706989409626 49.41615608214945
rclavicle -4.51564510694497e-16 -7.756154886924159e-16
rhumerus -20.277727675542266 -10.46019001190134 -81.32657819910017
rradius 31.03596798068297
rwrist -1.1987579956279975
rhand -18.827034511915663 23.967316942419945
rfingers 7.12502
rthumb 7.486208009465337 -5.747844263083706
44
root 0.7666205534117925 17.77136497471012 19.592395655924552 -3.23653994622579 -6.308467853500646 -0.907134089237867
lfemur -19.26434778540597 -5.588475784370486 -20.385391647383496
ltibia 23.21673649059432
lfoot -0.07464873945466799 -5.031279556934312
ltoes -4.672538405040415
rfemur -3.594594449982776 6.6908478931324655 24.466901399685984
rtibia 52.12188452028909
rfoot -0.27862006812970286 -10.946387198691552
rtoes 11.845528493851921
lowerback 9.313782191215633 2.0694804399683133 2.4950133131621905
upperback 0.3743434872258195 2.845153089975872 0.560997679344536
thorax -4.173841665850048 1.3541719871957079 -1.811897151867169
lowerneck -16.316132692851234 -3.271489976700115 -1.5606687852923538
upperneck 20.504387267986147 -4.562585185127066 1.9989227746813238
head 9.22358842297721 -2.134046108803454 0.3947803370761535
lclavicle -4.557549818659521e-16 -7.7828574279186e-16
lhumerus -37.481654290255726 11.205198621090506 77.14148319549354
lradius 19.97472289241767
lwrist 2.387360068692441
lhand -27.223224964093195 19.747383423386264
lfingers 7.12502
lthumb -0.769776922034763 49.50698741949508
rclavicle -4.516860113657513e-16 -7.757555158696068e-16
rhumerus -21.51437760256156 -12.434616508428924 -80.70665167552673
rradius 30.229976227374447
rwrist -0.27448035218277855
rhand -18.775299380936914 23.801395562609443
rfingers 7.12502
rthumb 7.500656543098869 -6.010624100670776
